<mxfile host="app.diagrams.net" modified="2023-06-20T18:52:02.328Z" agent="Mozilla/5.0 (Windows NT 10.0; Win64; x64) AppleWebKit/537.36 (KHTML, like Gecko) Chrome/114.0.0.0 Safari/537.36" version="21.5.0" etag="VUxbC7d2lJss3ki44htm" type="github">
  <diagram name="Page-1" id="d-zmZPO-uQ7ozSoj68ht">
    <mxGraphModel>
      <root>
        <mxCell id="0" />
        <mxCell id="1" parent="0" />
      </root>
    </mxGraphModel>
  </diagram>
</mxfile>
